<svg width="29" height="33" viewBox="0 0 29 33" fill="none" xmlns="http://www.w3.org/2000/svg">
<g id="amazon 1" clip-path="url(#clip0_1230_30)">
<path id="Vector" d="M16.575 10.6687C13.5312 10.7812 5.98124 11.6375 5.98124 18.0125C5.98124 24.8563 14.625 25.1375 17.45 20.7125C17.8562 21.35 19.6625 23.0563 20.2812 23.6375L23.8312 20.1375C23.8312 20.1375 21.8125 18.5562 21.8125 16.8375V7.64375C21.8125 6.0625 20.2812 2.5 14.7937 2.5C9.29374 2.5 6.37499 5.9375 6.37499 9.01875L10.9687 9.44375C11.9875 6.35 14.3562 6.35 14.3562 6.35C16.9 6.34375 16.575 8.2125 16.575 10.6687ZM16.575 16.0938C16.575 21.0938 11.3125 20.3438 11.3125 17.1688C11.3125 14.2188 14.4687 13.625 16.575 13.5562V16.0938ZM25.075 26.3125C24.5937 26.9375 20.7 30.5 14.1687 30.5C7.63749 30.5 2.63749 26.0312 1.10624 24.1875C0.681243 23.7062 1.16874 23.4813 1.44999 23.6688C6.03124 26.45 13.1875 31.0312 24.7312 25.5625C25.2 25.3312 25.5625 25.6875 25.075 26.3125ZM27.5625 26.45C27.1562 27.4375 26.5625 28.125 26.2375 28.3875C25.8937 28.6688 25.6437 28.5562 25.8312 28.15C26.0187 27.7437 27.0375 25.2437 26.625 24.7125C26.2187 24.1938 24.3125 24.4438 23.625 24.5125C22.95 24.575 22.8125 24.6375 22.75 24.4937C22.6062 24.1375 24.1062 23.525 25.0937 23.4C26.075 23.2875 27.6562 23.35 27.9687 23.7563C28.2 24.075 27.9687 25.45 27.5625 26.45Z" fill="black"/>
</g>
<defs>
<clipPath id="clip0_1230_30">
<rect width="28" height="32" fill="white" transform="translate(0.5 0.5)"/>
</clipPath>
</defs>
</svg>
